<?xml version="1.0" encoding="iso-8859-1"?>
<!-- Generator: Adobe Illustrator 19.0.0, SVG Export Plug-In . SVG Version: 6.00 Build 0)  -->
<svg version="1.1" id="Layer_1" xmlns="http://www.w3.org/2000/svg" xmlns:xlink="http://www.w3.org/1999/xlink" x="0px" y="0px"
	 viewBox="0 0 512 512" style="enable-background:new 0 0 512 512;" xml:space="preserve">
<circle style="fill:#FFFFFF;" cx="257.637" cy="131.116" r="48.037"/>
<path style="fill:#FBB03B;" d="M257.64,59.06c-39.794,0-72.055,32.26-72.055,72.055s32.26,72.055,72.055,72.055
	s72.055-32.26,72.055-72.055C329.694,91.32,297.434,59.06,257.64,59.06z M257.64,179.151c-26.53,0-48.037-21.506-48.037-48.037
	s21.506-48.037,48.037-48.037s48.037,21.506,48.037,48.037S284.169,179.151,257.64,179.151z"/>
<polyline style="fill:#CAD6DD;" points="208.787,290.341 105.526,290.341 9.443,475.374 9.443,483.39 504.656,483.39 
	504.656,475.374 409.754,290.341 306.361,290.341 "/>
<polyline style="fill:#8E999F;" points="353.574,290.341 105.526,290.341 9.443,475.374 9.443,483.39 257.049,483.39 "/>
<g>
	<circle style="fill:#F15A24;" cx="345.705" cy="331.268" r="16.013"/>
	<path style="fill:#F15A24;" d="M257.64,27.036c-57.48,0-104.079,46.597-104.079,104.079c0,57.48,104.079,200.151,104.079,200.151
		s104.079-142.67,104.079-200.151S315.12,27.036,257.64,27.036z M257.64,203.169c-39.794,0-72.055-32.26-72.055-72.055
		s32.26-72.055,72.055-72.055s72.055,32.26,72.055,72.055S297.434,203.169,257.64,203.169z"/>
	<circle style="fill:#F15A24;" cx="137.548" cy="331.268" r="16.013"/>
</g>
<path d="M257.64,344.618l-6.358-8.715c-0.261-0.359-26.514-36.43-52.408-79.074c-35.289-58.119-53.182-100.415-53.182-125.715
	c0-61.727,50.219-111.948,111.947-111.948c61.729,0,111.948,50.219,111.948,111.948c0,25.3-17.894,67.597-53.182,125.715
	c-25.893,42.644-52.146,78.714-52.409,79.074L257.64,344.618z M257.64,34.905c-53.051,0-96.209,43.159-96.209,96.21
	c0,22.062,17.599,62.71,50.897,117.547c17.942,29.55,36.037,55.871,45.313,69.049c9.287-13.197,27.418-39.57,45.369-69.139
	c33.26-54.791,50.841-95.407,50.841-117.456C353.85,78.064,310.69,34.905,257.64,34.905z"/>
<path d="M257.64,211.037c-44.07,0-79.923-35.854-79.923-79.923s35.854-79.923,79.923-79.923c44.071,0,79.924,35.854,79.924,79.923
	S301.71,211.037,257.64,211.037z M257.64,66.929c-35.392,0-64.186,28.794-64.186,64.186s28.793,64.186,64.186,64.186
	s64.187-28.794,64.187-64.186S293.032,66.929,257.64,66.929z"/>
<path d="M257.64,187.02c-30.826,0-55.905-25.079-55.905-55.906c0-30.826,25.079-55.906,55.905-55.906
	c30.827,0,55.906,25.079,55.906,55.906S288.466,187.02,257.64,187.02z M257.64,90.947c-22.148,0-40.167,18.019-40.167,40.168
	c0,22.148,18.019,40.168,40.167,40.168s40.168-18.019,40.168-40.168S279.788,90.947,257.64,90.947z"/>
<polygon points="512,492.832 0,492.832 0,473.411 100.799,284.046 208.787,284.046 208.787,299.783 110.25,299.783 15.867,477.095 
	496.167,477.095 404.953,299.783 306.361,299.783 306.361,284.046 414.555,284.046 512,473.469 "/>
<path d="M161.43,331.265c0-13.168-10.713-23.881-23.881-23.881s-23.881,10.713-23.881,23.881c0,10.566,6.9,19.546,16.43,22.684
	v8.785h15.738v-9.072C154.931,350.286,161.43,341.521,161.43,331.265z M137.55,323.122c4.49,0,8.144,3.653,8.144,8.144
	c0,4.49-3.652,8.143-8.144,8.143c-4.49,0-8.144-3.653-8.144-8.143C129.406,326.776,133.058,323.122,137.55,323.122z"/>
<polygon style="fill:#F47B50;" points="153.18,395.259 130.098,395.259 130.098,371.128 145.836,371.128 145.836,379.521 
	153.18,379.521 "/>
<rect x="160.525" y="379.52" width="16.787" height="15.738"/>
<rect x="185.705" y="379.52" width="16.787" height="15.738"/>
<rect x="208.787" y="379.52" width="15.738" height="15.738"/>
<rect x="231.869" y="379.52" width="16.787" height="15.738"/>
<polygon style="fill:#F47B50;" points="281.18,403.652 265.443,403.652 265.443,395.259 257.049,395.259 257.049,379.521 
	281.18,379.521 "/>
<rect x="265.443" y="412.045" width="15.738" height="13.639"/>
<polygon style="fill:#F47B50;" points="289.574,459.259 265.443,459.259 265.443,434.078 281.18,434.078 281.18,443.521 
	289.574,443.521 "/>
<rect x="297.967" y="443.52" width="15.738" height="15.738"/>
<rect x="323.148" y="443.52" width="15.738" height="15.738"/>
<rect x="345.18" y="443.52" width="15.738" height="15.738"/>
<polygon style="fill:#F47B50;" points="417.574,459.259 394.492,459.259 394.492,443.521 401.836,443.521 401.836,434.078 
	417.574,434.078 "/>
<rect x="401.836" y="412.045" width="15.738" height="13.639"/>
<polygon style="fill:#F47B50;" points="417.574,403.652 401.836,403.652 401.836,395.259 394.492,395.259 394.492,379.521 
	417.574,379.521 "/>
<rect x="369.311" y="443.52" width="16.787" height="15.738"/>
<path d="M369.587,331.265c0-13.168-10.713-23.881-23.881-23.881c-13.168,0-23.88,10.713-23.88,23.881
	c0,10.015,6.2,18.605,14.961,22.146v9.322h15.738v-8.585C362.38,351.207,369.587,342.064,369.587,331.265z M345.706,339.409
	c-4.489,0-8.143-3.653-8.143-8.143c0-4.491,3.653-8.144,8.143-8.144c4.49,0,8.144,3.653,8.144,8.144
	C353.85,335.756,350.196,339.409,345.706,339.409z"/>
<polygon style="fill:#F47B50;" points="360.918,395.259 336.787,395.259 336.787,371.128 352.525,371.128 352.525,379.521 
	360.918,379.521 "/>
<rect x="369.311" y="379.52" width="16.787" height="15.738"/>
<rect x="58.754" y="443.52" style="fill:#FFFFFF;" width="71.344" height="15.738"/>
<rect x="145.836" y="443.52" width="14.689" height="15.738"/>
<rect x="168.918" y="443.52" style="fill:#F47B50;" width="16.787" height="15.738"/>
<rect x="194.098" y="443.52" width="14.689" height="15.738"/>
<polygon style="fill:#F47B50;" points="283.279,123.521 265.443,123.521 265.443,107.783 249.705,107.783 249.705,123.521 
	232.918,123.521 232.918,139.259 249.705,139.259 249.705,154.996 265.443,154.996 265.443,139.259 283.279,139.259 "/>
<g>
</g>
<g>
</g>
<g>
</g>
<g>
</g>
<g>
</g>
<g>
</g>
<g>
</g>
<g>
</g>
<g>
</g>
<g>
</g>
<g>
</g>
<g>
</g>
<g>
</g>
<g>
</g>
<g>
</g>
</svg>
